M48
; DRILL file {KiCad 8.0.8} date 2025-03-16T16:52:40+0800
; FORMAT={-:-/ absolute / metric / decimal}
; #@! TF.CreationDate,2025-03-16T16:52:40+08:00
; #@! TF.GenerationSoftware,Kicad,Pcbnew,8.0.8
; #@! TF.FileFunction,Plated,1,2,PTH
FMAT,2
METRIC
; #@! TA.AperFunction,Plated,PTH,ViaDrill
T1C0.300
; #@! TA.AperFunction,Plated,PTH,ComponentDrill
T2C0.500
; #@! TA.AperFunction,Plated,PTH,ComponentDrill
T3C0.600
; #@! TA.AperFunction,Plated,PTH,ComponentDrill
T4C0.750
; #@! TA.AperFunction,Plated,PTH,ComponentDrill
T5C0.800
; #@! TA.AperFunction,Plated,PTH,ComponentDrill
T6C0.850
; #@! TA.AperFunction,Plated,PTH,ComponentDrill
T7C1.000
; #@! TA.AperFunction,Plated,PTH,ComponentDrill
T8C1.020
; #@! TA.AperFunction,Plated,PTH,ComponentDrill
T9C1.200
; #@! TA.AperFunction,Plated,PTH,ComponentDrill
T10C1.397
%
G90
G05
T1
X104.797Y-83.6
X104.81Y-66.714
X104.81Y-82.8
X104.81Y-92.6
X107.11Y-89.7
X108.31Y-82.8
X108.31Y-129.3
X108.91Y-106.4
X109.0Y-84.3
X109.5Y-108.9
X109.51Y-84.966
X110.0Y-111.5
X110.11Y-85.8
X110.195Y-59.59
X110.3Y-83.6
X110.37Y-53.3
X110.37Y-54.1
X110.5Y-114.0
X110.7Y-86.7
X110.9Y-83.0
X110.997Y-60.049
X111.017Y-49.259
X111.3Y-116.7
X111.366Y-87.144
X111.5Y-64.3
X111.515Y-82.488
X112.0Y-63.675
X112.0Y-67.01
X112.0Y-70.034
X112.0Y-74.4
X112.0Y-78.708
X112.0Y-119.2
X112.015Y-87.611
X112.018Y-53.33
X112.115Y-79.5
X112.115Y-81.819
X112.585Y-56.088
X112.6Y-70.6
X112.6Y-121.7
X112.711Y-88.006
X112.765Y-81.3
X112.8Y-77.0
X113.1Y-54.1
X113.1Y-126.8
X113.2Y-51.9
X113.2Y-56.6
X113.219Y-71.2
X113.219Y-88.624
X113.8Y-53.5
X113.8Y-60.5
X113.8Y-61.8
X113.8Y-90.4
X114.204Y-72.439
X114.4Y-54.4
X114.658Y-71.781
X115.0Y-55.4
X115.575Y-54.8
X115.6Y-81.9
X115.6Y-116.6
X115.9Y-80.2
X116.2Y-54.3
X116.25Y-91.665
X116.3Y-69.3
X116.3Y-89.8
X116.3Y-135.6
X116.729Y-67.529
X117.0Y-74.3
X117.002Y-91.937
X117.1Y-65.5
X117.2Y-96.8
X117.7Y-63.0
X118.4Y-52.2
X118.602Y-94.7
X119.7Y-93.6
X120.3Y-84.3
X120.395Y-60.941
X120.9Y-58.0
X120.9Y-59.8
X120.9Y-65.5
X120.9Y-84.9
X121.5Y-69.4
X121.5Y-73.1
X121.5Y-85.525
X122.1Y-66.5
X122.1Y-75.7
X122.1Y-86.137
X122.6Y-59.8
X122.6Y-60.99
X122.6Y-142.7
X122.7Y-70.0
X122.9Y-97.4
X123.3Y-71.6
X123.3Y-72.4
X123.3Y-73.3
X123.3Y-81.9
X123.3Y-114.1
X123.3Y-125.3
X123.9Y-88.543
X123.9Y-111.5
X123.9Y-122.8
X123.968Y-62.211
X124.0Y-59.9
X124.1Y-63.0
X124.5Y-64.3
X124.5Y-87.943
X124.5Y-96.1
X124.5Y-109.1
X124.5Y-120.2
X124.6Y-89.8
X124.8Y-65.6
X125.068Y-91.128
X125.1Y-87.343
X125.1Y-119.3
X125.243Y-72.416
X125.4Y-73.2
X125.4Y-90.4
X125.6Y-57.3
X125.6Y-58.6
X125.7Y-62.3
X125.7Y-86.743
X125.8Y-129.3
X126.234Y-90.378
X126.3Y-126.8
X126.826Y-89.743
X127.1Y-124.2
X127.434Y-89.143
X127.434Y-121.7
X127.9Y-52.8
X128.0Y-71.9
X128.0Y-82.5
X128.2Y-136.8
X128.52Y-59.3
X128.6Y-79.0
X128.634Y-83.1
X128.7Y-64.3
X128.7Y-78.0
X128.8Y-134.2
X129.3Y-83.7
X129.35Y-131.9
X129.95Y-92.0
X129.95Y-98.8
X129.95Y-104.265
X131.6Y-84.3
X131.825Y-57.2
X132.2Y-84.9
X132.225Y-65.5
X132.8Y-85.525
X132.8Y-120.3
X132.8Y-122.8
X132.8Y-125.4
X132.825Y-73.2
X132.924Y-62.876
X133.097Y-57.7
X133.3Y-65.0
X133.4Y-64.2
X133.4Y-72.5
X133.4Y-75.7
X133.4Y-86.137
X133.6Y-92.6
X133.6Y-119.2
X133.6Y-123.7
X134.0Y-60.3
X134.0Y-78.2
X134.4Y-80.8
X134.58Y-135.1
X134.6Y-72.6
X134.8Y-55.9
X134.8Y-68.1
X135.4Y-61.0
X135.488Y-88.558
X135.5Y-62.9
X135.8Y-52.8
X135.8Y-55.9
X136.0Y-65.5
X136.0Y-87.943
X136.5Y-70.6
X136.5Y-73.2
X136.6Y-87.343
X136.603Y-59.015
X137.2Y-86.743
X137.5Y-55.3
X139.3Y-61.7
X139.9Y-95.9
X140.0Y-54.7
X140.0Y-116.5
X140.0Y-118.7
X140.48Y-136.5
X140.66Y-53.5
X140.98Y-130.87
X140.98Y-132.17
X141.18Y-97.87
X141.18Y-99.17
X141.18Y-118.6
X141.18Y-119.707
X141.18Y-121.007
X141.28Y-107.6
X141.28Y-108.67
X141.28Y-109.97
X141.38Y-97.0
X141.418Y-48.7
X141.58Y-128.3
X141.7Y-53.3
X142.5Y-54.0
X142.8Y-86.743
X143.18Y-105.7
X143.18Y-117.0
X143.18Y-128.1
X143.28Y-95.0
X143.3Y-51.9
X143.4Y-87.343
X143.425Y-68.1
X143.5Y-142.9
X143.789Y-49.9
X143.9Y-54.0
X143.9Y-65.5
X144.0Y-87.943
X144.025Y-73.2
X144.4Y-49.3
X144.6Y-64.1
X144.6Y-88.543
X144.625Y-77.47
X144.625Y-78.3
X144.72Y-142.838
X144.791Y-108.01
X144.792Y-119.097
X144.826Y-97.267
X144.88Y-128.3
X144.9Y-48.6
X144.98Y-134.1
X145.08Y-111.7
X145.08Y-122.9
X145.2Y-60.5
X145.225Y-81.8
X145.28Y-100.5
X145.4Y-49.3
X145.4Y-50.1
X145.825Y-77.5
X145.9Y-70.7
X146.0Y-46.7
X146.0Y-56.0
X146.0Y-91.5
X146.445Y-65.5
X146.5Y-78.3
X146.592Y-86.143
X146.6Y-48.7
X146.6Y-52.5
X147.045Y-70.6
X147.045Y-73.1
X147.1Y-85.525
X147.645Y-68.1
X147.7Y-84.9
X147.9Y-144.3
X148.1Y-59.4
X148.3Y-84.3
X148.4Y-108.0
X148.4Y-109.8
X148.4Y-121.0
X148.48Y-96.5
X148.48Y-98.8
X148.48Y-130.3
X148.48Y-132.2
X148.5Y-119.1
X148.98Y-142.3
X149.38Y-138.5
X149.58Y-141.0
X150.6Y-64.2
X151.9Y-52.2
X153.541Y-94.861
X154.0Y-91.5
X154.1Y-66.9
X154.2Y-83.7
X154.373Y-47.41
X154.4Y-51.3
X154.73Y-60.5
X154.8Y-91.5
X155.4Y-75.7
X155.4Y-80.3
X155.4Y-81.35
X155.4Y-94.861
X155.488Y-88.558
X155.93Y-62.5
X156.0Y-55.1
X156.0Y-78.2
X156.0Y-87.943
X156.1Y-68.0
X156.28Y-137.3
X156.55Y-75.7
X156.6Y-87.343
X156.8Y-53.8
X156.9Y-65.5
X157.15Y-73.2
X157.2Y-86.743
X157.7Y-55.6
X157.7Y-62.9
X157.75Y-70.6
X157.8Y-86.137
X158.35Y-68.1
X158.4Y-62.49
X158.491Y-95.461
X158.5Y-99.5
X158.515Y-85.537
X158.78Y-113.1
X158.78Y-124.3
X158.78Y-134.4
X158.95Y-65.7
X159.0Y-84.9
X159.18Y-98.8
X159.6Y-84.3
X159.851Y-93.25
X159.98Y-100.2
X160.28Y-111.1
X160.637Y-142.97
X161.1Y-108.5
X161.275Y-138.005
X161.438Y-142.97
X161.98Y-135.2
X162.35Y-65.5
X162.376Y-92.776
X162.5Y-75.7
X162.6Y-83.7
X162.75Y-53.8
X162.75Y-59.7
X163.15Y-60.9
X163.5Y-96.6
X163.88Y-137.4
X163.9Y-91.5
X164.0Y-95.2
X164.4Y-55.6
X164.47Y-108.65
X164.7Y-91.5
X165.6Y-61.6
X165.7Y-84.3
X165.7Y-106.0
X165.934Y-53.834
X166.2Y-84.925
X166.2Y-60.692
X166.3Y-70.7
X166.5Y-54.4
X166.5Y-59.95
X166.715Y-85.537
X166.9Y-53.2
X166.9Y-68.2
X167.237Y-86.143
X167.45Y-93.25
X167.45Y-94.55
X167.5Y-55.6
X167.5Y-65.8
X168.0Y-141.5
X168.1Y-70.7
X168.1Y-78.4
X168.2Y-59.95
X168.7Y-68.2
X168.75Y-63.1
X168.75Y-86.7
X169.3Y-87.3
X169.4Y-70.8
X169.6Y-54.9
X169.8Y-141.5
X169.82Y-87.908
X169.95Y-60.4
X169.95Y-73.3
X170.4Y-55.0
X171.4Y-106.5
X171.65Y-83.0
X172.18Y-98.62
X173.2Y-88.4
X173.218Y-94.582
X173.8Y-83.6
X174.232Y-93.9
X174.4Y-92.1
X174.6Y-53.7
X174.7Y-79.6
X174.7Y-80.4
X175.17Y-133.69
X175.532Y-93.91
X175.532Y-96.897
X175.532Y-98.6
X175.6Y-81.0
X175.6Y-92.1
X175.698Y-52.418
X176.3Y-108.5
X176.47Y-51.818
X177.1Y-72.5
X178.1Y-54.3
X178.1Y-58.576
X178.7Y-88.4
X178.7Y-103.7
X178.7Y-144.57
X178.9Y-53.1
X179.8Y-55.6
X180.5Y-58.0
X180.6Y-89.0
X181.08Y-60.6
X181.112Y-89.615
X181.8Y-63.1
X181.8Y-90.3
X182.0Y-92.325
X182.3Y-55.0
X182.5Y-79.6
X183.6Y-53.4
X185.8Y-56.2
X185.8Y-64.4
X186.1Y-52.2
X186.425Y-97.42
X187.225Y-100.0
X188.2Y-91.5
X188.7Y-52.8
X188.8Y-56.9
X188.8Y-70.6
X190.4Y-79.7
X190.5Y-61.8
X191.1Y-94.537
X191.16Y-54.0
X191.76Y-81.0
X191.775Y-52.8
X192.4Y-52.3
X192.4Y-80.5
X193.0Y-70.7
X193.0Y-81.8
X193.6Y-69.4
X193.8Y-54.0
X193.8Y-90.8
X193.8Y-92.325
X194.7Y-110.5
X196.8Y-53.3
X196.82Y-82.4
X202.15Y-90.9
X202.9Y-111.7
T2
X144.12Y-140.02
X144.12Y-141.92
T4
X174.05Y-113.55
X174.05Y-114.82
X174.05Y-116.09
X174.05Y-119.08
X174.05Y-120.35
X174.05Y-121.62
X174.05Y-124.62
X174.05Y-125.89
X174.05Y-127.16
X174.05Y-130.15
X174.05Y-131.42
X174.05Y-132.69
X198.96Y-60.6
X200.22Y-61.87
X201.5Y-60.6
T5
X115.3Y-57.95
X115.3Y-60.49
X115.3Y-63.03
X115.3Y-65.57
X115.3Y-68.11
X115.3Y-70.65
X115.3Y-73.19
X115.3Y-75.73
X115.3Y-78.27
X119.2Y-57.89
X119.2Y-60.43
X119.2Y-62.97
X119.2Y-65.51
X119.2Y-68.05
X119.2Y-70.59
X119.2Y-73.13
X119.2Y-75.67
X119.2Y-78.21
X119.2Y-80.75
X126.82Y-57.89
X126.82Y-60.43
X126.82Y-62.97
X126.82Y-65.51
X126.82Y-68.05
X126.82Y-70.59
X126.82Y-73.13
X126.82Y-75.67
X126.82Y-78.21
X126.82Y-80.75
X130.525Y-57.911
X130.525Y-60.451
X130.525Y-62.991
X130.525Y-65.531
X130.525Y-68.071
X130.525Y-70.611
X130.525Y-73.151
X130.525Y-75.691
X130.525Y-78.231
X130.525Y-80.771
X138.145Y-57.911
X138.145Y-60.451
X138.145Y-62.991
X138.145Y-65.531
X138.145Y-68.071
X138.145Y-70.611
X138.145Y-73.151
X138.145Y-75.691
X138.145Y-78.231
X138.145Y-80.771
X141.725Y-57.911
X141.725Y-60.451
X141.725Y-62.991
X141.725Y-65.531
X141.725Y-68.071
X141.725Y-70.611
X141.725Y-73.151
X141.725Y-75.691
X141.725Y-78.231
X141.725Y-80.771
X149.345Y-57.911
X149.345Y-60.451
X149.345Y-62.991
X149.345Y-65.531
X149.345Y-68.071
X149.345Y-70.611
X149.345Y-73.151
X149.345Y-75.691
X149.345Y-78.231
X149.345Y-80.771
X153.03Y-57.91
X153.03Y-60.45
X153.03Y-62.99
X153.03Y-65.53
X153.03Y-68.07
X153.03Y-70.61
X153.03Y-73.15
X153.03Y-75.69
X153.03Y-78.23
X153.03Y-80.77
X160.65Y-57.91
X160.65Y-60.45
X160.65Y-62.99
X160.65Y-65.53
X160.65Y-68.07
X160.65Y-70.61
X160.65Y-73.15
X160.65Y-75.69
X160.65Y-78.23
X160.65Y-80.77
X161.7Y-97.43
X161.7Y-99.97
X161.7Y-102.51
X161.7Y-105.05
X162.35Y-127.2
X162.36Y-121.8
X162.36Y-124.4
X162.39Y-119.0
X163.61Y-115.9
X163.61Y-130.3
X164.4Y-57.99
X164.4Y-60.53
X164.4Y-63.07
X164.4Y-65.61
X164.4Y-68.15
X164.4Y-70.69
X164.4Y-73.23
X164.4Y-75.77
X164.4Y-78.31
X164.4Y-80.85
X168.61Y-115.9
X168.61Y-130.3
X169.32Y-97.43
X169.32Y-99.97
X169.32Y-102.51
X169.32Y-105.05
X169.97Y-127.2
X169.98Y-121.8
X169.98Y-124.4
X170.01Y-119.0
X172.02Y-57.99
X172.02Y-60.53
X172.02Y-63.07
X172.02Y-65.61
X172.02Y-68.15
X172.02Y-70.69
X172.02Y-73.23
X172.02Y-75.77
X172.02Y-78.31
X172.02Y-80.85
X172.68Y-97.42
X172.68Y-99.96
X172.68Y-102.5
X172.68Y-105.04
X175.7Y-57.976
X175.7Y-60.516
X175.7Y-63.056
X175.7Y-65.596
X175.7Y-68.136
X175.7Y-70.676
X175.7Y-73.216
X175.7Y-75.756
X180.3Y-97.42
X180.3Y-99.96
X180.3Y-102.5
X180.3Y-105.04
X183.32Y-57.976
X183.32Y-60.516
X183.32Y-63.056
X183.32Y-65.596
X183.32Y-68.136
X183.32Y-70.676
X183.32Y-73.216
X183.32Y-75.756
X183.68Y-97.42
X183.68Y-99.96
X183.68Y-102.5
X183.68Y-105.04
X187.1Y-57.975
X187.1Y-60.515
X187.1Y-63.055
X187.1Y-65.595
X187.1Y-68.135
X187.1Y-70.675
X187.1Y-73.215
X191.3Y-97.42
X191.3Y-99.96
X191.3Y-102.5
X191.3Y-105.04
X194.72Y-57.975
X194.72Y-60.515
X194.72Y-63.055
X194.72Y-65.595
X194.72Y-68.135
X194.72Y-70.675
X194.72Y-73.215
T6
X195.82Y-98.15
X195.82Y-103.9
X198.36Y-98.15
X198.36Y-103.9
X200.9Y-98.15
X200.9Y-103.9
T7
X106.56Y-57.84
X106.56Y-60.38
X106.56Y-62.92
X106.56Y-65.46
X106.56Y-68.0
X106.56Y-70.54
X106.56Y-73.08
X106.56Y-75.62
X106.56Y-78.16
X106.56Y-80.7
X109.1Y-57.84
X109.1Y-60.38
X109.1Y-62.92
X109.1Y-65.46
X109.1Y-68.0
X109.1Y-70.54
X109.1Y-73.08
X109.1Y-75.62
X109.1Y-78.16
X109.1Y-80.7
X112.12Y-48.0
X112.12Y-50.54
X114.66Y-48.0
X114.66Y-50.54
X117.2Y-48.0
X117.2Y-50.54
X119.74Y-48.0
X119.74Y-50.54
X122.28Y-48.0
X122.28Y-50.54
X124.82Y-48.0
X124.82Y-50.54
X127.36Y-48.0
X127.36Y-50.54
X129.9Y-48.0
X129.9Y-50.54
X132.44Y-48.0
X132.44Y-50.54
X134.98Y-48.0
X134.98Y-50.54
X137.52Y-48.0
X137.52Y-50.54
X140.06Y-48.0
X140.06Y-50.54
X142.6Y-48.0
X142.6Y-50.54
X148.06Y-47.96
X148.06Y-50.5
X150.6Y-47.96
X150.6Y-50.5
X153.14Y-47.96
X153.14Y-50.5
X155.68Y-47.96
X155.68Y-50.5
X158.22Y-47.96
X158.22Y-50.5
X160.76Y-47.96
X160.76Y-50.5
X163.3Y-47.96
X163.3Y-50.5
X165.84Y-47.96
X165.84Y-50.5
X168.38Y-47.96
X168.38Y-50.5
X170.92Y-47.96
X170.92Y-50.5
X173.46Y-47.96
X173.46Y-50.5
X176.0Y-47.96
X176.0Y-50.5
X178.54Y-47.96
X178.54Y-50.5
X179.18Y-142.7
X181.08Y-47.96
X181.08Y-50.5
X181.72Y-142.7
X183.62Y-47.96
X183.62Y-50.5
X184.26Y-142.7
X186.16Y-47.96
X186.16Y-50.5
X186.8Y-142.7
X188.7Y-47.96
X188.7Y-50.5
X191.24Y-47.96
X191.24Y-50.5
X193.78Y-47.96
X193.78Y-50.5
X196.32Y-47.96
X196.32Y-50.5
X198.98Y-65.6
X198.98Y-68.14
X198.98Y-70.68
X198.98Y-73.22
X201.52Y-65.6
X201.52Y-68.14
X201.52Y-70.68
X201.52Y-73.22
T8
X106.5Y-91.22
X106.5Y-93.76
X106.5Y-96.3
X106.5Y-98.84
X106.5Y-101.38
X106.5Y-103.92
X106.5Y-106.46
X106.5Y-109.0
X106.5Y-111.54
X106.5Y-114.08
X106.5Y-116.62
X106.5Y-119.16
X106.5Y-121.7
X106.5Y-124.24
X106.5Y-126.78
X106.5Y-129.32
X106.5Y-131.86
X106.5Y-134.4
X106.5Y-136.94
X131.9Y-91.22
X131.9Y-93.76
X131.9Y-96.3
X131.9Y-98.84
X131.9Y-101.38
X131.9Y-103.92
X131.9Y-106.46
X131.9Y-109.0
X131.9Y-111.54
X131.9Y-114.08
X131.9Y-116.62
X131.9Y-119.16
X131.9Y-121.7
X131.9Y-124.24
X131.9Y-126.78
X131.9Y-129.32
X131.9Y-131.86
X131.9Y-134.4
X131.9Y-136.94
T9
X163.21Y-112.919
X163.21Y-133.239
X169.01Y-112.899
X169.01Y-133.219
T10
X179.27Y-109.528
X179.27Y-114.989
X179.27Y-120.45
X179.295Y-125.489
X179.295Y-130.95
X179.295Y-136.411
T3
G00X165.08Y-137.965
M15
G01X165.08Y-139.065
M16
G05
G00X165.08Y-142.295
M15
G01X165.08Y-143.095
M16
G05
G00X173.72Y-137.965
M15
G01X173.72Y-139.065
M16
G05
G00X173.72Y-142.295
M15
G01X173.72Y-143.095
M16
G05
M30
