%TF.GenerationSoftware,KiCad,Pcbnew,8.0.8*%
%TF.CreationDate,2025-03-16T16:52:42+08:00*%
%TF.ProjectId,temp_pro,74656d70-5f70-4726-9f2e-6b696361645f,rev?*%
%TF.SameCoordinates,Original*%
%TF.FileFunction,Paste,Top*%
%TF.FilePolarity,Positive*%
%FSLAX46Y46*%
G04 Gerber Fmt 4.6, Leading zero omitted, Abs format (unit mm)*
G04 Created by KiCad (PCBNEW 8.0.8) date 2025-03-16 16:52:42*
%MOMM*%
%LPD*%
G01*
G04 APERTURE LIST*
G04 Aperture macros list*
%AMRoundRect*
0 Rectangle with rounded corners*
0 $1 Rounding radius*
0 $2 $3 $4 $5 $6 $7 $8 $9 X,Y pos of 4 corners*
0 Add a 4 corners polygon primitive as box body*
4,1,4,$2,$3,$4,$5,$6,$7,$8,$9,$2,$3,0*
0 Add four circle primitives for the rounded corners*
1,1,$1+$1,$2,$3*
1,1,$1+$1,$4,$5*
1,1,$1+$1,$6,$7*
1,1,$1+$1,$8,$9*
0 Add four rect primitives between the rounded corners*
20,1,$1+$1,$2,$3,$4,$5,0*
20,1,$1+$1,$4,$5,$6,$7,0*
20,1,$1+$1,$6,$7,$8,$9,0*
20,1,$1+$1,$8,$9,$2,$3,0*%
G04 Aperture macros list end*
%ADD10R,2.250000X1.550000*%
%ADD11RoundRect,0.200000X0.200000X0.275000X-0.200000X0.275000X-0.200000X-0.275000X0.200000X-0.275000X0*%
%ADD12RoundRect,0.250000X0.250000X0.475000X-0.250000X0.475000X-0.250000X-0.475000X0.250000X-0.475000X0*%
%ADD13RoundRect,0.250000X-0.250000X-0.250000X0.250000X-0.250000X0.250000X0.250000X-0.250000X0.250000X0*%
%ADD14RoundRect,0.250000X-0.250000X-0.475000X0.250000X-0.475000X0.250000X0.475000X-0.250000X0.475000X0*%
%ADD15R,3.500000X2.950000*%
%ADD16RoundRect,0.250000X0.262500X0.450000X-0.262500X0.450000X-0.262500X-0.450000X0.262500X-0.450000X0*%
%ADD17RoundRect,0.225000X-0.225000X-0.250000X0.225000X-0.250000X0.225000X0.250000X-0.225000X0.250000X0*%
%ADD18RoundRect,0.150000X-0.150000X0.512500X-0.150000X-0.512500X0.150000X-0.512500X0.150000X0.512500X0*%
%ADD19RoundRect,0.250000X-0.262500X-0.450000X0.262500X-0.450000X0.262500X0.450000X-0.262500X0.450000X0*%
%ADD20RoundRect,0.250000X-0.595000X-1.080000X0.595000X-1.080000X0.595000X1.080000X-0.595000X1.080000X0*%
%ADD21RoundRect,0.150000X-0.687500X-0.150000X0.687500X-0.150000X0.687500X0.150000X-0.687500X0.150000X0*%
%ADD22RoundRect,0.250000X0.450000X-0.262500X0.450000X0.262500X-0.450000X0.262500X-0.450000X-0.262500X0*%
%ADD23RoundRect,0.250000X-0.450000X0.262500X-0.450000X-0.262500X0.450000X-0.262500X0.450000X0.262500X0*%
%ADD24RoundRect,0.250000X-0.475000X0.250000X-0.475000X-0.250000X0.475000X-0.250000X0.475000X0.250000X0*%
%ADD25RoundRect,0.150000X-0.825000X-0.150000X0.825000X-0.150000X0.825000X0.150000X-0.825000X0.150000X0*%
%ADD26RoundRect,0.150000X-0.150000X-0.425000X0.150000X-0.425000X0.150000X0.425000X-0.150000X0.425000X0*%
%ADD27RoundRect,0.075000X-0.075000X-0.500000X0.075000X-0.500000X0.075000X0.500000X-0.075000X0.500000X0*%
%ADD28O,1.000000X2.100000*%
%ADD29O,1.000000X1.800000*%
%ADD30RoundRect,0.250000X0.475000X-0.250000X0.475000X0.250000X-0.475000X0.250000X-0.475000X-0.250000X0*%
%ADD31RoundRect,0.200000X-0.200000X-0.275000X0.200000X-0.275000X0.200000X0.275000X-0.200000X0.275000X0*%
G04 APERTURE END LIST*
D10*
%TO.C,D27*%
X150420000Y-104720000D03*
X146420000Y-104720000D03*
%TD*%
D11*
%TO.C,R27*%
X157820000Y-120920000D03*
X156170000Y-120920000D03*
%TD*%
D10*
%TO.C,D13*%
X146420000Y-135520000D03*
X150420000Y-135520000D03*
%TD*%
D12*
%TO.C,C44*%
X154570000Y-110320000D03*
X152670000Y-110320000D03*
%TD*%
D10*
%TO.C,D9*%
X146420000Y-101920000D03*
X150420000Y-101920000D03*
%TD*%
D13*
%TO.C,D6*%
X168820000Y-109950000D03*
X171320000Y-109950000D03*
%TD*%
D10*
%TO.C,D25*%
X146420000Y-113120000D03*
X150420000Y-113120000D03*
%TD*%
%TO.C,D15*%
X150420000Y-127120000D03*
X146420000Y-127120000D03*
%TD*%
%TO.C,D29*%
X157120000Y-104720000D03*
X153120000Y-104720000D03*
%TD*%
D14*
%TO.C,C28*%
X142320000Y-94020000D03*
X144220000Y-94020000D03*
%TD*%
%TO.C,C13*%
X142220000Y-127120000D03*
X144120000Y-127120000D03*
%TD*%
D11*
%TO.C,R17*%
X167020000Y-107850000D03*
X165370000Y-107850000D03*
%TD*%
D14*
%TO.C,C8*%
X142220000Y-137620000D03*
X144120000Y-137620000D03*
%TD*%
D15*
%TO.C,L2*%
X137120000Y-128570000D03*
X137120000Y-134020000D03*
%TD*%
D16*
%TO.C,R11*%
X174882500Y-107950000D03*
X173057500Y-107950000D03*
%TD*%
D12*
%TO.C,C17*%
X154570000Y-129920000D03*
X152670000Y-129920000D03*
%TD*%
%TO.C,C36*%
X154620000Y-118720000D03*
X152720000Y-118720000D03*
%TD*%
D11*
%TO.C,R22*%
X155020000Y-142920000D03*
X153370000Y-142920000D03*
%TD*%
D12*
%TO.C,C31*%
X154520000Y-99120000D03*
X152620000Y-99120000D03*
%TD*%
D17*
%TO.C,C10*%
X161625000Y-143920000D03*
X163175000Y-143920000D03*
%TD*%
D18*
%TO.C,U18*%
X144170000Y-107045000D03*
X143220000Y-107045000D03*
X142270000Y-107045000D03*
X142270000Y-109320000D03*
X143220000Y-109320000D03*
X144170000Y-109320000D03*
%TD*%
D14*
%TO.C,C7*%
X153420000Y-139620000D03*
X155320000Y-139620000D03*
%TD*%
D17*
%TO.C,C39*%
X142470000Y-111120000D03*
X144020000Y-111120000D03*
%TD*%
D19*
%TO.C,R12*%
X165320000Y-109950000D03*
X167145000Y-109950000D03*
%TD*%
D14*
%TO.C,C27*%
X142280000Y-102420000D03*
X144180000Y-102420000D03*
%TD*%
D10*
%TO.C,D24*%
X150420000Y-110320000D03*
X146420000Y-110320000D03*
%TD*%
D11*
%TO.C,R24*%
X157820000Y-130520000D03*
X156170000Y-130520000D03*
%TD*%
D10*
%TO.C,D4*%
X150420000Y-99120000D03*
X146420000Y-99120000D03*
%TD*%
D20*
%TO.C,U17*%
X160137500Y-140420000D03*
D21*
X157500000Y-138420000D03*
X157500000Y-139420000D03*
X157500000Y-140420000D03*
X157500000Y-141420000D03*
X157500000Y-142420000D03*
X162775000Y-142420000D03*
X162775000Y-141420000D03*
X162775000Y-140420000D03*
X162775000Y-139420000D03*
X162775000Y-138420000D03*
%TD*%
D10*
%TO.C,D14*%
X146420000Y-129920000D03*
X150420000Y-129920000D03*
%TD*%
D17*
%TO.C,C33*%
X142420000Y-122220000D03*
X143970000Y-122220000D03*
%TD*%
D10*
%TO.C,D22*%
X153020000Y-124320000D03*
X157020000Y-124320000D03*
%TD*%
%TO.C,D11*%
X150420000Y-93520000D03*
X146420000Y-93520000D03*
%TD*%
D11*
%TO.C,R29*%
X157720000Y-109720000D03*
X156070000Y-109720000D03*
%TD*%
D14*
%TO.C,C34*%
X142220000Y-124320000D03*
X144120000Y-124320000D03*
%TD*%
D10*
%TO.C,D23*%
X157020000Y-115920000D03*
X153020000Y-115920000D03*
%TD*%
D11*
%TO.C,R26*%
X157820000Y-119320000D03*
X156170000Y-119320000D03*
%TD*%
D22*
%TO.C,R8*%
X197300000Y-93837500D03*
X197300000Y-92012500D03*
%TD*%
D12*
%TO.C,C38*%
X154670000Y-121520000D03*
X152770000Y-121520000D03*
%TD*%
D13*
%TO.C,D7*%
X173070000Y-109950000D03*
X175570000Y-109950000D03*
%TD*%
D23*
%TO.C,R10*%
X201300000Y-91975000D03*
X201300000Y-93800000D03*
%TD*%
D11*
%TO.C,R16*%
X157720000Y-96920000D03*
X156070000Y-96920000D03*
%TD*%
D24*
%TO.C,C18*%
X199300000Y-91937500D03*
X199300000Y-93837500D03*
%TD*%
D10*
%TO.C,D12*%
X150420000Y-132720000D03*
X146420000Y-132720000D03*
%TD*%
%TO.C,D18*%
X150420000Y-121520000D03*
X146420000Y-121520000D03*
%TD*%
D11*
%TO.C,R25*%
X157820000Y-132120000D03*
X156170000Y-132120000D03*
%TD*%
D25*
%TO.C,U7*%
X146345000Y-138515000D03*
X146345000Y-139785000D03*
X146345000Y-141055000D03*
X146345000Y-142325000D03*
X151295000Y-142325000D03*
X151295000Y-141055000D03*
X151295000Y-139785000D03*
X151295000Y-138515000D03*
%TD*%
D12*
%TO.C,C32*%
X154570000Y-132720000D03*
X152670000Y-132720000D03*
%TD*%
D10*
%TO.C,D5*%
X157120000Y-93520000D03*
X153120000Y-93520000D03*
%TD*%
D14*
%TO.C,C41*%
X142280000Y-104800000D03*
X144180000Y-104800000D03*
%TD*%
D18*
%TO.C,U10*%
X144170000Y-118082500D03*
X143220000Y-118082500D03*
X142270000Y-118082500D03*
X142270000Y-120357500D03*
X143220000Y-120357500D03*
X144170000Y-120357500D03*
%TD*%
D10*
%TO.C,D26*%
X146420000Y-107520000D03*
X150420000Y-107520000D03*
%TD*%
%TO.C,D20*%
X146420000Y-118720000D03*
X150420000Y-118720000D03*
%TD*%
%TO.C,D28*%
X153020000Y-113120000D03*
X157020000Y-113120000D03*
%TD*%
D15*
%TO.C,L3*%
X137220000Y-117570000D03*
X137220000Y-123020000D03*
%TD*%
D12*
%TO.C,C42*%
X154570000Y-107520000D03*
X152670000Y-107520000D03*
%TD*%
D14*
%TO.C,C35*%
X142220000Y-115920000D03*
X144120000Y-115920000D03*
%TD*%
D15*
%TO.C,L1*%
X137220000Y-95970000D03*
X137220000Y-101420000D03*
%TD*%
D26*
%TO.C,J4*%
X166200000Y-137940000D03*
X167000000Y-137940000D03*
D27*
X168150000Y-137940000D03*
X169150000Y-137940000D03*
X169650000Y-137940000D03*
X170650000Y-137940000D03*
D26*
X171800000Y-137940000D03*
X172600000Y-137940000D03*
X172600000Y-137940000D03*
X171800000Y-137940000D03*
D27*
X171150000Y-137940000D03*
X170150000Y-137940000D03*
X168650000Y-137940000D03*
X167650000Y-137940000D03*
D26*
X167000000Y-137940000D03*
X166200000Y-137940000D03*
D28*
X165080000Y-138515000D03*
D29*
X165080000Y-142695000D03*
D28*
X173720000Y-138515000D03*
D29*
X173720000Y-142695000D03*
%TD*%
D17*
%TO.C,C26*%
X142570000Y-100520000D03*
X144120000Y-100520000D03*
%TD*%
D18*
%TO.C,U6*%
X144120000Y-129245000D03*
X143170000Y-129245000D03*
X142220000Y-129245000D03*
X142220000Y-131520000D03*
X143170000Y-131520000D03*
X144120000Y-131520000D03*
%TD*%
D15*
%TO.C,L4*%
X137220000Y-106670000D03*
X137220000Y-112120000D03*
%TD*%
D30*
%TO.C,C14*%
X195300000Y-93887500D03*
X195300000Y-91987500D03*
%TD*%
D10*
%TO.C,D21*%
X150420000Y-115920000D03*
X146420000Y-115920000D03*
%TD*%
D17*
%TO.C,C11*%
X142370000Y-133420000D03*
X143920000Y-133420000D03*
%TD*%
D16*
%TO.C,R15*%
X163100000Y-136620000D03*
X161275000Y-136620000D03*
%TD*%
D31*
%TO.C,R23*%
X156070000Y-98520000D03*
X157720000Y-98520000D03*
%TD*%
D17*
%TO.C,C21*%
X153370000Y-137820000D03*
X154920000Y-137820000D03*
%TD*%
D14*
%TO.C,C40*%
X142220000Y-113020000D03*
X144120000Y-113020000D03*
%TD*%
D10*
%TO.C,D8*%
X153120000Y-101920000D03*
X157120000Y-101920000D03*
%TD*%
%TO.C,D16*%
X153020000Y-135520000D03*
X157020000Y-135520000D03*
%TD*%
%TO.C,D10*%
X146420000Y-96320000D03*
X150420000Y-96320000D03*
%TD*%
D12*
%TO.C,C30*%
X154520000Y-96320000D03*
X152620000Y-96320000D03*
%TD*%
D14*
%TO.C,C12*%
X142220000Y-135520000D03*
X144120000Y-135520000D03*
%TD*%
D10*
%TO.C,D19*%
X146420000Y-124320000D03*
X150420000Y-124320000D03*
%TD*%
D11*
%TO.C,R7*%
X160120000Y-143920000D03*
X158470000Y-143920000D03*
%TD*%
D16*
%TO.C,R13*%
X170682500Y-107850000D03*
X168857500Y-107850000D03*
%TD*%
D11*
%TO.C,R28*%
X157720000Y-108120000D03*
X156070000Y-108120000D03*
%TD*%
D14*
%TO.C,C9*%
X144170000Y-144320000D03*
X146070000Y-144320000D03*
%TD*%
D10*
%TO.C,D17*%
X157020000Y-127120000D03*
X153020000Y-127120000D03*
%TD*%
D19*
%TO.C,R14*%
X161832500Y-109950000D03*
X163657500Y-109950000D03*
%TD*%
D11*
%TO.C,R21*%
X155020000Y-141420000D03*
X153370000Y-141420000D03*
%TD*%
D18*
%TO.C,U14*%
X144270000Y-96245000D03*
X143320000Y-96245000D03*
X142370000Y-96245000D03*
X142370000Y-98520000D03*
X143320000Y-98520000D03*
X144270000Y-98520000D03*
%TD*%
M02*
