%TF.GenerationSoftware,KiCad,Pcbnew,8.0.8*%
%TF.CreationDate,2025-03-16T16:52:43+08:00*%
%TF.ProjectId,temp_pro,74656d70-5f70-4726-9f2e-6b696361645f,rev?*%
%TF.SameCoordinates,Original*%
%TF.FileFunction,Soldermask,Bot*%
%TF.FilePolarity,Negative*%
%FSLAX46Y46*%
G04 Gerber Fmt 4.6, Leading zero omitted, Abs format (unit mm)*
G04 Created by KiCad (PCBNEW 8.0.8) date 2025-03-16 16:52:43*
%MOMM*%
%LPD*%
G01*
G04 APERTURE LIST*
G04 Aperture macros list*
%AMRoundRect*
0 Rectangle with rounded corners*
0 $1 Rounding radius*
0 $2 $3 $4 $5 $6 $7 $8 $9 X,Y pos of 4 corners*
0 Add a 4 corners polygon primitive as box body*
4,1,4,$2,$3,$4,$5,$6,$7,$8,$9,$2,$3,0*
0 Add four circle primitives for the rounded corners*
1,1,$1+$1,$2,$3*
1,1,$1+$1,$4,$5*
1,1,$1+$1,$6,$7*
1,1,$1+$1,$8,$9*
0 Add four rect primitives between the rounded corners*
20,1,$1+$1,$2,$3,$4,$5,0*
20,1,$1+$1,$4,$5,$6,$7,0*
20,1,$1+$1,$6,$7,$8,$9,0*
20,1,$1+$1,$8,$9,$2,$3,0*%
G04 Aperture macros list end*
%ADD10C,3.200000*%
%ADD11O,4.395000X2.299500*%
%ADD12O,1.600000X1.600000*%
%ADD13R,1.600000X1.600000*%
%ADD14R,1.500000X1.050000*%
%ADD15O,1.500000X1.050000*%
%ADD16O,1.700000X1.700000*%
%ADD17R,1.700000X1.700000*%
%ADD18C,1.600000*%
%ADD19C,1.000000*%
%ADD20C,1.300000*%
%ADD21R,1.300000X1.300000*%
%ADD22C,0.650000*%
%ADD23O,1.000000X2.100000*%
%ADD24O,1.000000X1.800000*%
%ADD25RoundRect,0.412500X0.412500X0.412500X-0.412500X0.412500X-0.412500X-0.412500X0.412500X-0.412500X0*%
%ADD26C,1.650000*%
%ADD27RoundRect,0.102000X-0.765000X-0.765000X0.765000X-0.765000X0.765000X0.765000X-0.765000X0.765000X0*%
%ADD28C,1.734000*%
%ADD29RoundRect,0.250000X-0.250000X-0.475000X0.250000X-0.475000X0.250000X0.475000X-0.250000X0.475000X0*%
%ADD30RoundRect,0.225000X-0.250000X0.225000X-0.250000X-0.225000X0.250000X-0.225000X0.250000X0.225000X0*%
%ADD31C,2.400000*%
%ADD32O,2.400000X2.400000*%
%ADD33RoundRect,0.225000X-0.225000X-0.250000X0.225000X-0.250000X0.225000X0.250000X-0.225000X0.250000X0*%
%ADD34RoundRect,0.200000X0.200000X0.275000X-0.200000X0.275000X-0.200000X-0.275000X0.200000X-0.275000X0*%
%ADD35RoundRect,0.250000X0.250000X0.475000X-0.250000X0.475000X-0.250000X-0.475000X0.250000X-0.475000X0*%
%ADD36RoundRect,0.102000X-2.390000X1.575000X-2.390000X-1.575000X2.390000X-1.575000X2.390000X1.575000X0*%
G04 APERTURE END LIST*
D10*
%TO.C,H6*%
X198900000Y-131200000D03*
%TD*%
%TO.C,H5*%
X198900000Y-115000000D03*
%TD*%
D11*
%TO.C,Q1*%
X179295000Y-125489000D03*
X179295000Y-130950000D03*
X179295000Y-136411000D03*
%TD*%
D12*
%TO.C,U12*%
X172020000Y-57990000D03*
X172020000Y-60530000D03*
X172020000Y-63070000D03*
X172020000Y-65610000D03*
X172020000Y-68150000D03*
X172020000Y-70690000D03*
X172020000Y-73230000D03*
X172020000Y-75770000D03*
X172020000Y-78310000D03*
X172020000Y-80850000D03*
X164400000Y-80850000D03*
X164400000Y-78310000D03*
X164400000Y-75770000D03*
X164400000Y-73230000D03*
X164400000Y-70690000D03*
X164400000Y-68150000D03*
X164400000Y-65610000D03*
X164400000Y-63070000D03*
X164400000Y-60530000D03*
D13*
X164400000Y-57990000D03*
%TD*%
D10*
%TO.C,H3*%
X201200000Y-48950000D03*
%TD*%
D12*
%TO.C,U15*%
X194720000Y-57975000D03*
X194720000Y-60515000D03*
X194720000Y-63055000D03*
X194720000Y-65595000D03*
X194720000Y-68135000D03*
X194720000Y-70675000D03*
X194720000Y-73215000D03*
X187100000Y-73215000D03*
X187100000Y-70675000D03*
X187100000Y-68135000D03*
X187100000Y-65595000D03*
X187100000Y-63055000D03*
X187100000Y-60515000D03*
D13*
X187100000Y-57975000D03*
%TD*%
D12*
%TO.C,RN1*%
X115300000Y-78270000D03*
X115300000Y-75730000D03*
X115300000Y-73190000D03*
X115300000Y-70650000D03*
X115300000Y-68110000D03*
X115300000Y-65570000D03*
X115300000Y-63030000D03*
X115300000Y-60490000D03*
D13*
X115300000Y-57950000D03*
%TD*%
D14*
%TO.C,Q4*%
X174050000Y-130150000D03*
D15*
X174050000Y-131420000D03*
X174050000Y-132690000D03*
%TD*%
D16*
%TO.C,J2*%
X109100000Y-80700000D03*
X106560000Y-80700000D03*
X109100000Y-78160000D03*
X106560000Y-78160000D03*
X109100000Y-75620000D03*
X106560000Y-75620000D03*
X109100000Y-73080000D03*
X106560000Y-73080000D03*
X109100000Y-70540000D03*
X106560000Y-70540000D03*
X109100000Y-68000000D03*
X106560000Y-68000000D03*
X109100000Y-65460000D03*
X106560000Y-65460000D03*
X109100000Y-62920000D03*
X106560000Y-62920000D03*
X109100000Y-60380000D03*
X106560000Y-60380000D03*
X109100000Y-57840000D03*
D17*
X106560000Y-57840000D03*
%TD*%
D13*
%TO.C,U1*%
X169320000Y-105050000D03*
D12*
X169320000Y-102510000D03*
X169320000Y-99970000D03*
X169320000Y-97430000D03*
X161700000Y-97430000D03*
X161700000Y-99970000D03*
X161700000Y-102510000D03*
X161700000Y-105050000D03*
%TD*%
D13*
%TO.C,D2*%
X162360000Y-121800000D03*
D12*
X169980000Y-121800000D03*
%TD*%
D10*
%TO.C,H1*%
X107200000Y-142950000D03*
%TD*%
D18*
%TO.C,R6*%
X162350000Y-127200000D03*
D12*
X169970000Y-127200000D03*
%TD*%
D14*
%TO.C,Q2*%
X174050000Y-119080000D03*
D15*
X174050000Y-120350000D03*
X174050000Y-121620000D03*
%TD*%
D14*
%TO.C,Q3*%
X174050000Y-124620000D03*
D15*
X174050000Y-125890000D03*
X174050000Y-127160000D03*
%TD*%
D14*
%TO.C,Q8*%
X174050000Y-113550000D03*
D15*
X174050000Y-114820000D03*
X174050000Y-116090000D03*
%TD*%
D18*
%TO.C,C4*%
X168610000Y-115900000D03*
X163610000Y-115900000D03*
%TD*%
D13*
%TO.C,U11*%
X180300000Y-105040000D03*
D12*
X180300000Y-102500000D03*
X180300000Y-99960000D03*
X180300000Y-97420000D03*
X172680000Y-97420000D03*
X172680000Y-99960000D03*
X172680000Y-102500000D03*
X172680000Y-105040000D03*
%TD*%
D19*
%TO.C,Y1*%
X144120000Y-140020000D03*
X144120000Y-141920000D03*
%TD*%
D16*
%TO.C,J1*%
X142600000Y-48000000D03*
X142600000Y-50540000D03*
X140060000Y-48000000D03*
X140060000Y-50540000D03*
X137520000Y-48000000D03*
X137520000Y-50540000D03*
X134980000Y-48000000D03*
X134980000Y-50540000D03*
X132440000Y-48000000D03*
X132440000Y-50540000D03*
X129900000Y-48000000D03*
X129900000Y-50540000D03*
X127360000Y-48000000D03*
X127360000Y-50540000D03*
X124820000Y-48000000D03*
X124820000Y-50540000D03*
X122280000Y-48000000D03*
X122280000Y-50540000D03*
X119740000Y-48000000D03*
X119740000Y-50540000D03*
X117200000Y-48000000D03*
X117200000Y-50540000D03*
X114660000Y-48000000D03*
X114660000Y-50540000D03*
X112120000Y-48000000D03*
D17*
X112120000Y-50540000D03*
%TD*%
D12*
%TO.C,U9*%
X160650000Y-57910000D03*
X160650000Y-60450000D03*
X160650000Y-62990000D03*
X160650000Y-65530000D03*
X160650000Y-68070000D03*
X160650000Y-70610000D03*
X160650000Y-73150000D03*
X160650000Y-75690000D03*
X160650000Y-78230000D03*
X160650000Y-80770000D03*
X153030000Y-80770000D03*
X153030000Y-78230000D03*
X153030000Y-75690000D03*
X153030000Y-73150000D03*
X153030000Y-70610000D03*
X153030000Y-68070000D03*
X153030000Y-65530000D03*
X153030000Y-62990000D03*
X153030000Y-60450000D03*
D13*
X153030000Y-57910000D03*
%TD*%
D18*
%TO.C,R5*%
X170010000Y-119000000D03*
D12*
X162390000Y-119000000D03*
%TD*%
D10*
%TO.C,H4*%
X107200000Y-48950000D03*
%TD*%
%TO.C,H2*%
X201200000Y-142950000D03*
%TD*%
D13*
%TO.C,D3*%
X169980000Y-124400000D03*
D12*
X162360000Y-124400000D03*
%TD*%
D16*
%TO.C,J7*%
X179180000Y-142700000D03*
X181720000Y-142700000D03*
X184260000Y-142700000D03*
D17*
X186800000Y-142700000D03*
%TD*%
D20*
%TO.C,U2*%
X198960000Y-60600000D03*
X200220000Y-61870000D03*
D21*
X201500000Y-60600000D03*
%TD*%
D12*
%TO.C,U16*%
X149345000Y-57911000D03*
X149345000Y-60451000D03*
X149345000Y-62991000D03*
X149345000Y-65531000D03*
X149345000Y-68071000D03*
X149345000Y-70611000D03*
X149345000Y-73151000D03*
X149345000Y-75691000D03*
X149345000Y-78231000D03*
X149345000Y-80771000D03*
X141725000Y-80771000D03*
X141725000Y-78231000D03*
X141725000Y-75691000D03*
X141725000Y-73151000D03*
X141725000Y-70611000D03*
X141725000Y-68071000D03*
X141725000Y-65531000D03*
X141725000Y-62991000D03*
X141725000Y-60451000D03*
D13*
X141725000Y-57911000D03*
%TD*%
D22*
%TO.C,J4*%
X166510000Y-139015000D03*
X172290000Y-139015000D03*
D23*
X165080000Y-138515000D03*
D24*
X165080000Y-142695000D03*
D23*
X173720000Y-138515000D03*
D24*
X173720000Y-142695000D03*
%TD*%
D11*
%TO.C,Q7*%
X179270000Y-109528000D03*
X179270000Y-114989000D03*
X179270000Y-120450000D03*
%TD*%
D25*
%TO.C,RV1*%
X200900000Y-98150000D03*
D26*
X198360000Y-98150000D03*
X195820000Y-98150000D03*
%TD*%
D12*
%TO.C,U3*%
X138145000Y-57911000D03*
X138145000Y-60451000D03*
X138145000Y-62991000D03*
X138145000Y-65531000D03*
X138145000Y-68071000D03*
X138145000Y-70611000D03*
X138145000Y-73151000D03*
X138145000Y-75691000D03*
X138145000Y-78231000D03*
X138145000Y-80771000D03*
X130525000Y-80771000D03*
X130525000Y-78231000D03*
X130525000Y-75691000D03*
X130525000Y-73151000D03*
X130525000Y-70611000D03*
X130525000Y-68071000D03*
X130525000Y-65531000D03*
X130525000Y-62991000D03*
X130525000Y-60451000D03*
D13*
X130525000Y-57911000D03*
%TD*%
D12*
%TO.C,U5*%
X183320000Y-57976000D03*
X183320000Y-60516000D03*
X183320000Y-63056000D03*
X183320000Y-65596000D03*
X183320000Y-68136000D03*
X183320000Y-70676000D03*
X183320000Y-73216000D03*
X183320000Y-75756000D03*
X175700000Y-75756000D03*
X175700000Y-73216000D03*
X175700000Y-70676000D03*
X175700000Y-68136000D03*
X175700000Y-65596000D03*
X175700000Y-63056000D03*
X175700000Y-60516000D03*
D13*
X175700000Y-57976000D03*
%TD*%
D16*
%TO.C,J3*%
X148060000Y-50500000D03*
X148060000Y-47960000D03*
X150600000Y-50500000D03*
X150600000Y-47960000D03*
X153140000Y-50500000D03*
X153140000Y-47960000D03*
X155680000Y-50500000D03*
X155680000Y-47960000D03*
X158220000Y-50500000D03*
X158220000Y-47960000D03*
X160760000Y-50500000D03*
X160760000Y-47960000D03*
X163300000Y-50500000D03*
X163300000Y-47960000D03*
X165840000Y-50500000D03*
X165840000Y-47960000D03*
X168380000Y-50500000D03*
X168380000Y-47960000D03*
X170920000Y-50500000D03*
X170920000Y-47960000D03*
X173460000Y-50500000D03*
X173460000Y-47960000D03*
X176000000Y-50500000D03*
X176000000Y-47960000D03*
X178540000Y-50500000D03*
X178540000Y-47960000D03*
X181080000Y-50500000D03*
X181080000Y-47960000D03*
X183620000Y-50500000D03*
X183620000Y-47960000D03*
X186160000Y-50500000D03*
X186160000Y-47960000D03*
X188700000Y-50500000D03*
X188700000Y-47960000D03*
X191240000Y-50500000D03*
X191240000Y-47960000D03*
X193780000Y-50500000D03*
X193780000Y-47960000D03*
X196320000Y-50500000D03*
D17*
X196320000Y-47960000D03*
%TD*%
D27*
%TO.C,U4*%
X106500000Y-91220000D03*
D28*
X106500000Y-93760000D03*
X106500000Y-96300000D03*
X106500000Y-98840000D03*
X106500000Y-101380000D03*
X106500000Y-103920000D03*
X106500000Y-106460000D03*
X106500000Y-109000000D03*
X106500000Y-111540000D03*
X106500000Y-114080000D03*
X106500000Y-116620000D03*
X106500000Y-119160000D03*
X106500000Y-121700000D03*
X106500000Y-124240000D03*
X106500000Y-126780000D03*
X106500000Y-129320000D03*
X106500000Y-131860000D03*
X106500000Y-134400000D03*
X106500000Y-136940000D03*
X131900000Y-136940000D03*
X131900000Y-134400000D03*
X131900000Y-131860000D03*
X131900000Y-129320000D03*
X131900000Y-126780000D03*
X131900000Y-124240000D03*
X131900000Y-121700000D03*
X131900000Y-119160000D03*
X131900000Y-116620000D03*
X131900000Y-114080000D03*
X131900000Y-111540000D03*
X131900000Y-109000000D03*
X131900000Y-106460000D03*
X131900000Y-103920000D03*
X131900000Y-101380000D03*
X131900000Y-98840000D03*
X131900000Y-96300000D03*
X131900000Y-93760000D03*
X131900000Y-91220000D03*
%TD*%
D13*
%TO.C,U8*%
X191300000Y-105040000D03*
D12*
X191300000Y-102500000D03*
X191300000Y-99960000D03*
X191300000Y-97420000D03*
X183680000Y-97420000D03*
X183680000Y-99960000D03*
X183680000Y-102500000D03*
X183680000Y-105040000D03*
%TD*%
%TO.C,U13*%
X126820000Y-57890000D03*
X126820000Y-60430000D03*
X126820000Y-62970000D03*
X126820000Y-65510000D03*
X126820000Y-68050000D03*
X126820000Y-70590000D03*
X126820000Y-73130000D03*
X126820000Y-75670000D03*
X126820000Y-78210000D03*
X126820000Y-80750000D03*
X119200000Y-80750000D03*
X119200000Y-78210000D03*
X119200000Y-75670000D03*
X119200000Y-73130000D03*
X119200000Y-70590000D03*
X119200000Y-68050000D03*
X119200000Y-65510000D03*
X119200000Y-62970000D03*
X119200000Y-60430000D03*
D13*
X119200000Y-57890000D03*
%TD*%
D18*
%TO.C,C6*%
X163610000Y-130300000D03*
X168610000Y-130300000D03*
%TD*%
D16*
%TO.C,J5*%
X201520000Y-73220000D03*
X198980000Y-73220000D03*
X201520000Y-70680000D03*
X198980000Y-70680000D03*
X201520000Y-68140000D03*
X198980000Y-68140000D03*
X201520000Y-65600000D03*
D17*
X198980000Y-65600000D03*
%TD*%
D25*
%TO.C,RV2*%
X200900000Y-103900000D03*
D26*
X198360000Y-103900000D03*
X195820000Y-103900000D03*
%TD*%
D29*
%TO.C,C19*%
X170150000Y-58070000D03*
X168250000Y-58070000D03*
%TD*%
D30*
%TO.C,C20*%
X185750000Y-103465000D03*
X185750000Y-105015000D03*
%TD*%
D29*
%TO.C,C1*%
X124620000Y-57950000D03*
X122720000Y-57950000D03*
%TD*%
D31*
%TO.C,R2*%
X169010000Y-133219000D03*
D32*
X169010000Y-112899000D03*
%TD*%
D33*
%TO.C,C16*%
X158425000Y-61070000D03*
X156875000Y-61070000D03*
%TD*%
D29*
%TO.C,C24*%
X147275000Y-57811000D03*
X145375000Y-57811000D03*
%TD*%
D31*
%TO.C,R4*%
X163210000Y-112919000D03*
D32*
X163210000Y-133239000D03*
%TD*%
D29*
%TO.C,C23*%
X136175000Y-57811000D03*
X134275000Y-57811000D03*
%TD*%
%TO.C,C15*%
X158650000Y-57820000D03*
X156750000Y-57820000D03*
%TD*%
D34*
%TO.C,R9*%
X156825000Y-59570000D03*
X158475000Y-59570000D03*
%TD*%
D35*
%TO.C,C25*%
X177780000Y-70726000D03*
X179680000Y-70726000D03*
%TD*%
D36*
%TO.C,BT2*%
X119290000Y-98875000D03*
X119290000Y-129915000D03*
%TD*%
M02*
